<?xml version="1.0" encoding="UTF-8"?>
<svg version="1.0"
  xmlns="http://www.w3.org/2000/svg" width="225" height="225">
  <style>
    path {
      fill: #07004d;
    }
    @media (prefers-color-scheme: dark) {
      path {
        fill: #ddecff;
      }
    }
  </style>
  <path d="M0 0 C36.86250587 26.25752492 61.62380412 77.05586841 72 120 C72.31710938 121.27617187 72.63421875 122.55234375 72.9609375 123.8671875 C74.96079201 132.82080608 75.30228728 141.71816951 75.375 150.875 C75.38893799 152.00405762 75.40287598 153.13311523 75.41723633 154.29638672 C75.34706006 166.69297891 72.49405203 178.15399232 64.0625 187.5625 C56.24785384 194.82374847 46.18308326 199.14225314 36.375 203 C35.60502686 203.30292969 34.83505371 203.60585937 34.04174805 203.91796875 C30.34239183 205.3133651 28.05763115 206 24 206 C23.87471924 205.45698242 23.74943848 204.91396484 23.62036133 204.35449219 C19.62435944 187.22514531 13.73178417 173.02237776 4.95214844 157.80249023 C2.19458306 152.58220686 2.25506931 147.51129472 3.89453125 141.984375 C4.61244318 139.9245005 5.35466627 137.87288069 6.125 135.83203125 C6.98749249 133.04048191 7.16956982 130.89858409 7 128 C4.01176191 126.44893631 2.5711548 125.85903413 -0.75390625 126.6796875 C-1.68074219 127.07414063 -2.60757813 127.46859375 -3.5625 127.875 C-7.16543535 129.3841352 -9.00356565 130 -13 130 C-13.55874179 113.14858523 -14.09736477 96.299599 -14.125 79.4375 C-14.12951172 78.32342773 -14.13402344 77.20935547 -14.13867188 76.06152344 C-14.10597659 58.25893904 -14.10597659 58.25893904 -9 52 C-8.49077009 47.07744425 -9.17560247 43.12139977 -10.25 38.3125 C-10.82421875 35.4765625 -10.82421875 35.4765625 -11 33 C-9.0625 30.1875 -9.0625 30.1875 -7 28 C-6.9041582 24.82257395 -6.9041582 24.82257395 -8 22 C-10.72511051 19.72037505 -10.72511051 19.72037505 -13.3125 20.25 C-16.24665579 21.06883417 -19.12389762 21.99670847 -22 23 C-21.505 25.475 -21.505 25.475 -21 28 C-21.99 28 -22.98 28 -24 28 C-23.01 30.475 -23.01 30.475 -22 33 C-23.32 33.33 -24.64 33.66 -26 34 C-25.505 34.61875 -25.01 35.2375 -24.5 35.875 C-23 38 -23 38 -23 40 C-24.32 40 -25.64 40 -27 40 C-26.01 41.98 -26.01 41.98 -25 44 C-25.99 44.99 -26.98 45.98 -28 47 C-27.34 47.99 -26.68 48.98 -26 50 C-27.65 50.33 -29.3 50.66 -31 51 C-30.52820313 51.41507813 -30.05640625 51.83015625 -29.5703125 52.2578125 C-21.13326679 61.61831595 -24.88468646 86.02710838 -24.9375 97.8125 C-24.94252683 99.77669156 -24.94708763 101.74088438 -24.95117188 103.70507812 C-24.96207965 108.47008351 -24.97927857 113.2350276 -25 118 C-25.99 118 -26.98 118 -28 118 C-28.680625 117.2575 -29.36125 116.515 -30.0625 115.75 C-33.59597524 112.00237474 -38.10108593 110.33464005 -43 109 C-46.679887 109 -48.13448827 109.19417873 -50.8125 111.6875 C-53.89216239 117.68473728 -52.77067582 122.80263462 -51 129 C-50.4121875 130.5159375 -50.4121875 130.5159375 -49.8125 132.0625 C-48.59155599 136.47668219 -48.96567422 140.73546004 -50.86499023 144.89379883 C-51.95710236 146.76459067 -53.11336729 148.57104995 -54.3125 150.375 C-61.5494112 161.82107682 -66.15568586 172.97926226 -63.2109375 186.66796875 C-61.46208569 193.54285524 -59.34828417 200.30739013 -57 207 C-60.16328955 208.58164478 -62.58091266 207.05633647 -65.83105469 206.00585938 C-67.21405762 205.53889648 -67.21405762 205.53889648 -68.625 205.0625 C-70.03894043 204.58586914 -70.03894043 204.58586914 -71.48144531 204.09960938 C-85.82291413 199.12013492 -102.19915557 192.93822801 -109.68554688 178.84545898 C-113.91001822 169.70054562 -114.49418284 160.24714287 -114.375 150.3125 C-114.36484863 149.08080078 -114.35469727 147.84910156 -114.34423828 146.58007812 C-114.18336437 137.08727014 -113.3800397 128.18543177 -111 119 C-110.81195801 118.24944336 -110.62391602 117.49888672 -110.43017578 116.72558594 C-100.70433772 78.85903745 -80.19372632 40.22067973 -53 12 C-52.31164062 11.24847656 -51.62328125 10.49695313 -50.9140625 9.72265625 C-36.17545586 -5.94839285 -18.68298493 -11.39206398 0 0 Z " transform="translate(132,9)"/>
</svg>

