<svg version="1.0"
    xmlns="http://www.w3.org/2000/svg" width="180.000000pt" height="180.000000pt" viewBox="0 0 180.000000 180.000000" preserveAspectRatio="xMidYMid meet">
    <g transform="translate(0.000000,180.000000) scale(0.100000,-0.100000)" fill="#fff" stroke="none">
        <path d="M801 1650 c-130 -62 -283 -255 -416 -525 -110 -223 -155 -387 -155
-559 0 -175 39 -250 168 -319 52 -28 222 -90 229 -83 2 2 -5 24 -16 49 -57
134 -49 228 30 352 53 83 54 85 24 164 -27 74 0 141 58 141 32 0 117 -44 117
-60 0 -6 5 -10 12 -10 15 0 4 395 -11 414 -6 7 -8 16 -3 20 4 4 -1 12 -11 17
-24 14 -21 29 5 29 21 0 21 0 2 14 -18 14 -18 15 6 25 14 5 19 10 13 10 -7 1
-13 8 -13 17 0 10 6 14 15 10 8 -3 15 -1 15 4 0 6 -4 10 -10 10 -5 0 -10 7
-10 15 0 8 8 15 17 15 13 0 14 3 5 12 -17 17 -15 28 6 29 10 0 12 3 5 6 -18 7
-16 33 2 33 9 0 27 7 40 16 23 15 27 15 50 0 30 -20 33 -56 6 -80 -18 -17 -19
-21 -5 -64 19 -65 18 -87 -8 -105 -23 -15 -23 -15 -22 -271 1 -142 4 -259 7
-262 3 -3 24 4 47 16 23 12 54 20 68 18 36 -4 40 -44 12 -111 -27 -61 -23 -87
26 -163 47 -73 82 -160 97 -240 l12 -63 89 34 c181 68 248 141 263 286 24 231
-70 522 -278 858 -115 187 -283 331 -385 331 -23 0 -66 -13 -103 -30z"/>
    </g>
</svg>
